<svg xmlns="http://www.w3.org/2000/svg" xmlns:xlink="http://www.w3.org/1999/xlink"><symbol viewBox="0 -5 20 40" fill="currentColor" id="basket"><path clip-rule="evenodd" d="M1.167 9.9A2.368 2.368 0 0 1 3.5 7.5h14a2.368 2.368 0 0 1 2.333 2.4v10.8a4.735 4.735 0 0 1-4.666 4.8H5.833a4.735 4.735 0 0 1-4.666-4.8V9.9Z" stroke="#fff" stroke-width="1.5" stroke-linecap="round" stroke-linejoin="round"/><path d="M15.167 11.1V6.3A4.735 4.735 0 0 0 10.5 1.5a4.735 4.735 0 0 0-4.667 4.8v4.8" stroke="#fff" stroke-width="1.5" stroke-linecap="round" stroke-linejoin="round"/></symbol><symbol fill="currentColor" viewBox="0 0 49 29" id="master-card"><path d="M48.762 14.5c0 7.956-6.47 14.5-14.5 14.5-7.956 0-14.5-6.544-14.5-14.5S26.232 0 34.188 0c8.105 0 14.574 6.544 14.574 14.5Z"/><path d="M29.354 14.574c0-1.04-.148-2.082-.297-3.048h-8.923c.074-.52.223-.967.372-1.562h7.956c-.149-.52-.372-1.04-.595-1.561H21.1c.223-.521.52-.967.818-1.562h5.131c-.297-.52-.67-1.041-1.115-1.562h-2.826c.446-.52.892-.966 1.487-1.487C22.067 1.412 18.647 0 14.855 0 6.971.223.428 6.544.428 14.5S6.898 29 14.929 29c3.792 0 7.138-1.487 9.74-3.792.521-.446.967-.967 1.488-1.562h-2.975a10.626 10.626 0 0 1-1.04-1.487h5.056c.297-.446.595-.967.818-1.562h-6.767a7.601 7.601 0 0 1-.595-1.561h7.957c.446-1.339.743-2.826.743-4.462Z"/><path d="m20.062 18.218.223-1.339c-.075 0-.223.075-.372.075-.52 0-.595-.298-.52-.446l.446-2.677h.818l.223-1.487h-.744l.149-.893h-1.562s-.892 5.057-.892 5.651c0 .893.52 1.339 1.264 1.339.446 0 .818-.149.967-.223ZM20.582 15.764c0 2.157 1.487 2.677 2.677 2.677 1.115 0 1.636-.223 1.636-.223l.297-1.487s-.818.372-1.636.372c-1.71 0-1.413-1.265-1.413-1.265h3.123s.224-.966.224-1.412c0-.967-.52-2.231-2.231-2.231-1.487-.075-2.677 1.636-2.677 3.57Zm2.677-2.23c.818 0 .67.966.67 1.04h-1.711c.074-.074.223-1.04 1.04-1.04ZM32.998 18.218l.297-1.71s-.743.372-1.338.372c-1.04 0-1.562-.818-1.562-1.785 0-1.859.893-2.826 2.008-2.826.744 0 1.413.447 1.413.447l.223-1.636s-.892-.372-1.785-.372c-1.784 0-3.494 1.561-3.494 4.461 0 1.934.892 3.198 2.75 3.198.67.074 1.488-.149 1.488-.149ZM11.658 12.12c-1.041 0-1.86.298-1.86.298l-.222 1.338s.669-.297 1.71-.297c.52 0 .967.074.967.52 0 .298-.075.372-.075.372h-.669c-1.338 0-2.751.52-2.751 2.305 0 1.413.892 1.71 1.487 1.71 1.04 0 1.561-.669 1.636-.669l-.075.595h1.264l.595-4.239c0-1.859-1.487-1.933-2.007-1.933Zm.297 3.42c0 .224-.149 1.488-1.04 1.488-.447 0-.596-.372-.596-.595 0-.372.223-.892 1.413-.892h.223ZM15.153 18.366c.372 0 2.305.075 2.305-2.007 0-1.934-1.859-1.562-1.859-2.305 0-.372.297-.52.818-.52.223 0 1.04.073 1.04.073l.224-1.412s-.52-.15-1.487-.15c-1.116 0-2.305.447-2.305 2.009 0 1.784 1.933 1.636 1.933 2.305 0 .446-.52.52-.892.52-.67 0-1.413-.223-1.413-.223l-.223 1.413c.149.149.595.297 1.859.297ZM45.785 10.93l-.297 2.083s-.595-.744-1.487-.744c-1.413 0-2.603 1.71-2.603 3.718 0 1.264.595 2.528 1.934 2.528.892 0 1.487-.595 1.487-.595l-.075.52h1.562l1.115-7.36-1.636-.15Zm-.743 4.016c0 .818-.372 1.933-1.264 1.933-.52 0-.818-.446-.818-1.264 0-1.264.52-2.007 1.264-2.007.52.074.818.446.818 1.338ZM3.254 18.292l.892-5.502.149 5.502h1.04l2.008-5.502-.818 5.502h1.636l1.264-7.361H6.897l-1.561 4.536-.075-4.536h-2.23l-1.265 7.361h1.488Z"/><path d="M27.05 18.293c.446-2.529.52-4.61 1.636-4.239.149-.967.372-1.413.52-1.785h-.297c-.67 0-1.264.893-1.264.893l.149-.818h-1.488l-.966 5.949h1.71ZM36.569 12.12a6.021 6.021 0 0 0-1.86.298l-.222 1.338s.669-.297 1.71-.297c.52 0 .967.074.967.52 0 .298-.075.372-.075.372h-.669c-1.338 0-2.751.52-2.751 2.305 0 1.413.892 1.71 1.487 1.71 1.041 0 1.562-.669 1.636-.669l-.075.595h1.413l.595-4.239c0-1.859-1.636-1.933-2.156-1.933Zm.372 3.42c0 .224-.15 1.488-1.041 1.488-.447 0-.595-.372-.595-.595 0-.372.223-.892 1.413-.892h.223ZM39.916 18.293c.446-2.529.52-4.61 1.635-4.239.15-.967.372-1.413.52-1.785h-.297c-.669 0-1.264.893-1.264.893l.149-.818h-1.487l-.967 5.949h1.71Z"/></symbol><symbol fill="currentColor" viewBox="0 0 46 13" id="mir"><g clip-path="url(#ca)"><path d="M16.42 12.984h-4.093V5.363h-.271L9.77 12.986H6.667L4.38 5.356h-.262c-.014.633-.005 1.264-.007 1.895v5.698c-.152.058-3.862.072-4.112.017V.026C.088.02.173.008.258.008h3.798c.176 0 .353-.006.53 0 .805.03 1.332.48 1.642 1.215.142.333.236.689.334 1.04.485 1.73.964 3.462 1.446 5.193.019.066.044.131.068.203h.29c.023-.076.05-.153.072-.232.543-1.925 1.084-3.85 1.63-5.775.12-.424.307-.811.622-1.123.314-.31.69-.474 1.117-.508.257-.022.516-.013.774-.013h3.828c.048.178.056 12.735.011 12.975ZM31.115 12.985h-4.172V5.36h-.332c-.03.062-.065.13-.095.2-.867 1.996-1.735 3.992-2.599 5.99-.328.76-.876 1.238-1.663 1.418a1.108 1.108 0 0 1-.242.026 1760.9 1760.9 0 0 1-3.634 0c-.067 0-.133-.007-.213-.012V.052c.14-.053 3.818-.074 4.176-.021.006.089.017.183.017.278l.001 7.056v.282h.305c.032-.065.071-.138.105-.213.878-1.983 1.759-3.965 2.632-5.95.251-.572.608-1.03 1.169-1.3a1.72 1.72 0 0 1 .768-.178c1.177.006 2.354.002 3.532.002h.234c.05.18.06 12.74.011 12.977Z"/><path d="M45.907 5.369c-.085.004-.158.01-.232.01-2.47 0-4.94.005-7.41-.008-.52-.003-1.046.008-1.56-.132a5.04 5.04 0 0 1-2.087-1.154 6.14 6.14 0 0 1-1.765-2.742 5.156 5.156 0 0 1-.248-1.31c.08-.003.157-.01.234-.01L38.35.02c1.028-.001 2.055 0 3.083-.002.796-.002 1.556.161 2.258.555 1.255.702 1.992 1.795 2.248 3.242a4.08 4.08 0 0 1-.002 1.447c-.005.027-.015.053-.03.107Z" fill-opacity=".5"/><path d="M45.63 6.203c-.117.36-.286.672-.494.96-.695.958-1.632 1.53-2.744 1.817a4.96 4.96 0 0 1-1.254.141c-1.36-.003-2.722 0-4.083 0h-.261v3.827c-.164.059-3.755.071-3.998.019V6.225c.007-.01.011-.016.016-.02.005-.005.01-.01.017-.011.026-.006.053-.014.08-.014h12.635c.02 0 .039.01.086.023Z"/></g><defs><clipPath id="ca"><path d="M0 0h46v13H0z"/></clipPath></defs></symbol><symbol viewBox="0 -5 23 32" fill="currentColor" id="search"><path d="M11.057 20.142c-5.008 0-9.085-4.077-9.085-9.085 0-5.008 4.077-9.085 9.085-9.085 5.008 0 9.085 4.077 9.085 9.085 0 5.008-4.077 9.085-9.085 9.085Zm0-16.84c-4.281 0-7.756 3.483-7.756 7.755s3.475 7.755 7.756 7.755c4.281 0 7.755-3.483 7.755-7.755S15.338 3.3 11.058 3.3ZM20.364 21.028a.657.657 0 0 1-.47-.195l-1.773-1.772a.669.669 0 0 1 0-.94.669.669 0 0 1 .94 0l1.772 1.773a.669.669 0 0 1 0 .94.657.657 0 0 1-.47.194Z"/></symbol><symbol fill="currentColor" viewBox="0 0 22 23" id="search-normal"><path d="M10.193 20.142c-5.008 0-9.085-4.077-9.085-9.085 0-5.008 4.077-9.085 9.085-9.085 5.008 0 9.085 4.077 9.085 9.085 0 5.008-4.077 9.085-9.085 9.085Zm0-16.84c-4.281 0-7.756 3.483-7.756 7.755s3.475 7.755 7.756 7.755c4.281 0 7.756-3.483 7.756-7.755S14.474 3.3 10.193 3.3ZM19.5 21.028a.657.657 0 0 1-.47-.195l-1.773-1.772a.669.669 0 0 1 0-.94.669.669 0 0 1 .94 0l1.773 1.773a.669.669 0 0 1 0 .94.657.657 0 0 1-.47.194Z"/></symbol><symbol fill="currentColor" viewBox="0 0 45 14" id="visa"><g clip-path="url(#fa)"><path d="M44.998 13.726v.08h-3.372l-.435-2.026h-4.684l-.76 2.02h-3.819c.02-.052.035-.094.053-.135l4.272-9.813c.373-.854.744-1.71 1.121-2.563.148-.336.373-.614.708-.799.331-.182.695-.24 1.069-.243.937-.005 1.876-.002 2.814-.002.031 0 .063.006.096.01l.94 4.328.972 4.483.886 4.086c.042.192.093.382.14.573Zm-7.434-4.727h3.025L39.5 3.923c-.65 1.7-1.29 3.378-1.937 5.076ZM30.03 0c.132.017.263.038.396.05.763.074 1.504.24 2.221.5.018.007.034.016.07.033l-.493 2.913c-.261-.102-.51-.207-.763-.297a6.379 6.379 0 0 0-2.82-.324c-.409.041-.8.151-1.134.397a1.021 1.021 0 0 0-.402.555c-.082.295.011.552.225.755.189.18.397.35.624.478.463.263.942.5 1.42.738.681.34 1.325.729 1.858 1.27.504.51.837 1.107.928 1.81.1.777-.02 1.528-.354 2.243-.451.968-1.215 1.641-2.183 2.117a7.044 7.044 0 0 1-2.175.65c-.384.052-.773.075-1.16.112h-.79c-1.053-.044-2.088-.185-3.095-.49-.209-.063-.412-.142-.622-.214l.511-3.048c.245.105.474.206.705.304.636.27 1.291.482 1.985.56.662.074 1.326.123 1.987-.01.305-.062.596-.162.854-.332.375-.245.59-.572.55-1.025a.96.96 0 0 0-.26-.558 2.68 2.68 0 0 0-.758-.574c-.442-.235-.894-.453-1.339-.683-.68-.352-1.32-.757-1.843-1.312-.682-.723-.965-1.566-.85-2.539.14-1.206.755-2.14 1.752-2.856.776-.556 1.658-.884 2.602-1.057.35-.063.705-.093 1.057-.14.02-.002.038-.017.058-.025L30.03 0Z"/><path d="M0 .46.07.244H5.83c.278 0 .553.03.817.114.515.163.811.52.921 1.019.14.634.264 1.27.395 1.907L8.51 5.96l.292 1.417c.008.04.007.081.01.121-.018-.036-.04-.07-.055-.108a9.825 9.825 0 0 0-1.015-1.874C6.87 4.247 5.756 3.212 4.44 2.375c-.194-.124-.399-.231-.6-.346-.222-.122-.44-.253-.668-.366A15.435 15.435 0 0 0 .122.551C.085.54.043.544 0 .54V.46Z" fill-opacity=".5"/><path d="M3.84 2.03c.2.114.406.221.6.345 1.317.837 2.43 1.872 3.303 3.14.406.591.747 1.215 1.015 1.875.015.038.037.072.055.108l.334 1.547.095.444L12.809.25h3.852c-.07.167-.136.33-.204.491l-5.455 12.892c-.08.188-.033.156-.238.156-1.172.002-2.345.001-3.517.001h-.165c-.072-.256-.143-.507-.212-.758L4.068 2.865c-.077-.279-.152-.557-.227-.836ZM19.503 13.8h-3.645L18.135.252h3.646L19.503 13.8Z"/></g><defs><clipPath id="fa"><path d="M0 0h45v14H0z"/></clipPath></defs></symbol></svg>